<svg width="197" height="172" viewBox="0 0 197 172" fill="none" xmlns="http://www.w3.org/2000/svg">
<path fill-rule="evenodd" clip-rule="evenodd" d="M139.542 65.5238C139.542 88.141 121.167 106.476 98.5 106.476C75.8335 106.476 57.4583 88.141 57.4583 65.5238C57.4583 42.9066 75.8335 24.5714 98.5 24.5714C121.167 24.5714 139.542 42.9066 139.542 65.5238ZM131.333 65.5238C131.333 83.6178 116.633 98.2857 98.5 98.2857C80.3666 98.2857 65.6667 83.6178 65.6667 65.5238C65.6667 47.4298 80.3666 32.7619 98.5 32.7619C116.633 32.7619 131.333 47.4298 131.333 65.5238Z" fill="#42AAFF"/>
<path fill-rule="evenodd" clip-rule="evenodd" d="M73.5225 118.169C73.5376 118.199 73.5528 118.229 73.568 118.259C73.6727 118.467 73.7749 118.669 73.875 118.859H90.5539C94.276 118.858 96.1339 118.859 97.9948 118.859H98.0966C99.918 118.859 101.775 118.86 105.416 118.859H122.096C123.033 117.084 125.166 114.249 127.229 114.718C131.865 115.772 136.536 117.241 141.024 119.046L141.16 118.978L141.205 119.068L141.235 119.132C158.126 125.976 172.375 137.584 172.375 149.762V172H24.625V149.762C24.625 134.302 47.5911 119.759 69.7708 114.718C71.582 114.307 72.654 116.44 73.5225 118.169ZM134.224 125.243C132.462 124.628 130.676 124.071 128.883 123.578L127.051 127.049H105.416C101.695 127.05 99.8597 127.05 98.0469 127.049C96.1914 127.049 94.3597 127.049 90.556 127.049H68.92L67.2213 123.83C66.7272 123.972 66.2339 124.119 65.7414 124.27C65.7143 124.54 65.6929 124.845 65.6802 125.186C65.6269 126.599 65.7327 128.274 65.9659 129.982C66.1986 131.685 66.5445 133.319 66.9295 134.636C66.9907 134.845 67.0518 135.042 67.1117 135.226C73.2311 135.941 77.9792 141.131 77.9792 147.429C77.9792 154.214 72.4669 159.714 65.6667 159.714C58.8665 159.714 53.3542 154.214 53.3542 147.429C53.3542 143.059 55.6402 139.223 59.0836 137.045L59.0495 136.929C58.5369 135.175 58.1134 133.14 57.833 131.089C57.6627 129.844 57.5404 128.556 57.4875 127.288C52.4123 129.45 47.6843 132.062 43.7188 134.949C35.8282 140.694 32.8333 146.064 32.8333 149.762V163.81H164.167V149.762C164.167 146.064 161.172 140.694 153.281 134.949C150.062 132.606 146.341 130.443 142.34 128.556C142.275 129.407 142.183 130.258 142.069 131.089C141.88 132.475 141.625 133.853 141.321 135.143H143.646C145.2 135.143 146.621 136.019 147.317 137.407L151.421 145.597C151.706 146.166 151.854 146.793 151.854 147.429V155.619C151.854 157.881 150.017 159.714 147.75 159.714H139.542V151.524H143.646V148.395L141.109 143.333H129.766L127.229 148.395V151.524H131.333V159.714H123.125C120.858 159.714 119.021 157.881 119.021 155.619V147.429C119.021 146.793 119.169 146.166 119.454 145.597L123.558 137.407C124.254 136.019 125.675 135.143 127.229 135.143H132.817C132.869 134.983 132.92 134.814 132.973 134.636C133.357 133.319 133.703 131.685 133.936 129.982C134.166 128.297 134.272 126.644 134.224 125.243ZM69.7708 147.429C69.7708 149.78 67.8763 151.584 65.6667 151.584C63.457 151.584 61.5625 149.78 61.5625 147.429C61.5625 145.077 63.457 143.273 65.6667 143.273C67.8763 143.273 69.7708 145.077 69.7708 147.429Z" fill="#42AAFF"/>
</svg>
